:SAMPLES-PER-SECOND 30
:FRAME-RANGE 1-2091
:FULLY-SPECIFIED
:DEGREES
589
root  -34.8913 39.5903 -95.9092 177.648 -4.43581 -179.76
RightUpLeg  9.29456 -8.71696 -3.53293
RightLeg  6.82933 -12.1911 1.9522
RightFoot  -11.4299 -0.0721425 7.18444
RightToes  5.82063e-011 0 -3.6325e-017
Spine  6.03918 4.43474 12.2259
Spine1  0.739398 7.1783 -10.8136
HEad  22.6658 -34.7932 -4.41238
LeftShoulder1  0.653283 1.58218 -27.8614
LeftArm  14.324 31.7698 -30.7959
LeftForeArm  -2.55557 -17.1818 -9.9238
LeftHand  0.513781 -1.71943 -8.25651
RightShoulder  10.7403 25.8302 30.4011
RightArm  -32.6562 28.2593 7.92014
RightForeArm  39.0667 3.34122 7.04961
RightHand  -0.677493 3.40535 -9.17338
LeftUpLeg  -19.8334 14.5449 -2.2597
LeftLeg  11.8953 -0.25075 -1.22121
LeftFoot  -0.0997581 0.865202 -8.77447
LeftToes  -6.27584e-011 -2.25241e-010 2.80627e-011
590
root  -34.7798 39.4928 -96.9544 177.528 -5.34081 -179.634
RightUpLeg  12.226 -8.18597 -3.02514
RightLeg  4.80969 -13.4591 2.13745
RightFoot  -12.2141 -0.0231666 7.84952
RightToes  5.82063e-011 0 -3.6325e-017
Spine  5.21026 4.44035 11.4709
Spine1  1.49185 7.19791 -11.0208
HEad  23.0093 -35.2345 -3.83861
LeftShoulder1  0.68213 1.49049 -27.7445
LeftArm  14.8103 31.568 -30.1718
LeftForeArm  -3.048 -17.3528 -9.80073
LeftHand  0.505058 -1.70985 -8.12617
RightShoulder  10.0824 26.052 27.8419
RightArm  -33.4158 28.8093 6.97539
RightForeArm  32.839 2.86352 7.58002
RightHand  -0.742763 3.33814 -10.1026
LeftUpLeg  -16.6249 5.04431 0.677307
LeftLeg  0.670976 11.5133 -4.28769
LeftFoot  1.69258 1.00681 -8.89174
LeftToes  -6.27584e-011 -2.25241e-010 2.80627e-011
591
root  -34.7701 39.2584 -98.0977 177.021 -6.20579 -179.223
RightUpLeg  14.8895 -8.0844 -2.61895
RightLeg  4.64664 -14.2911 2.18681
RightFoot  -13.8186 0.101182 9.00853
RightToes  5.82063e-011 0 -3.6325e-017
Spine  4.55096 4.31602 10.9424
Spine1  2.16098 7.03578 -10.8307
HEad  23.5868 -35.4705 -3.49294
LeftShoulder1  0.709499 1.41159 -27.777
LeftArm  15.0815 31.143 -29.431
LeftForeArm  -2.87212 -17.0553 -10.0761
LeftHand  0.492284 -1.67315 -7.9624
RightShoulder  9.55052 25.8828 26.1805
RightArm  -32.9755 29.0037 6.02696
RightForeArm  29.8417 1.84117 8.02907
RightHand  -0.620177 3.06264 -8.73857
LeftUpLeg  -14.7818 4.32647 0.0886471
LeftLeg  -4.32529 15.8808 -4.96509
LeftFoot  3.62444 1.19708 -9.26752
LeftToes  -6.27584e-011 -2.25241e-010 2.80627e-011
592
root  -34.8386 38.9211 -99.2984 176.522 -7.11046 -178.753
RightUpLeg  16.7804 -8.32104 -2.47057
RightLeg  6.43332 -14.2955 1.98839
RightFoot  -16.069 0.322214 10.4271
RightToes  5.82063e-011 0 -3.6325e-017
Spine  4.05106 4.16151 10.3919
Spine1  2.4953 6.79009 -10.4229
HEad  24.2227 -35.7199 -3.06985
LeftShoulder1  0.731421 1.34212 -27.7003
LeftArm  14.8323 30.3879 -28.8292
LeftForeArm  -2.07769 -16.2447 -10.7668
LeftHand  0.478801 -1.55837 -7.8807
RightShoulder  9.16924 25.2361 25.5799
RightArm  -31.4294 28.6428 5.52103
RightForeArm  28.3 0.935048 8.64677
RightHand  -0.392579 2.54376 -5.95079
LeftUpLeg  -14.1638 4.39378 -0.526641
LeftLeg  -2.69964 17.8662 -4.70404
LeftFoot  4.72031 1.21051 -8.77169
LeftToes  -6.27584e-011 -2.25241e-010 2.80627e-011
593
root  -34.9725 38.6285 -100.53 176.006 -7.6458 -178.601
RightUpLeg  18.4759 -9.65692 -3.36638
RightLeg  8.95669 -12.4575 1.6877
RightFoot  -17.8107 0.584529 12.4439
RightToes  5.82063e-011 0 -3.6325e-017
Spine  3.60544 4.15514 9.47702
Spine1  2.95377 6.71925 -10.1058
HEad  24.8054 -36.1696 -2.66562
LeftShoulder1  0.741871 1.30752 -27.6419
LeftArm  13.6278 29.604 -28.327
LeftForeArm  -0.655437 -15.1681 -11.5748
LeftHand  0.47321 -1.45747 -7.91268
RightShoulder  9.05362 24.4697 26.0797
RightArm  -29.1418 27.4982 5.61662
RightForeArm  26.5549 0.581206 9.48797
RightHand  -0.307385 2.10437 -4.94634
LeftUpLeg  -14.6277 4.88016 -1.47267
LeftLeg  1.45804 15.6618 -4.18813
LeftFoot  9.832 -0.837644 4.15813
LeftToes  -6.27584e-011 -2.25241e-010 2.80627e-011
594
root  -35.1348 38.4697 -101.697 175.127 -7.75312 -179.737
RightUpLeg  19.51 -15.0221 -7.19024
RightLeg  14.1761 -5.02515 -0.174408
RightFoot  -18.6703 0.899122 15.9334
RightToes  5.82063e-011 0 -3.6325e-017
Spine  4.67006 4.06634 6.8518
Spine1  2.49982 6.4353 -9.52766
HEad  25.4207 -36.4506 -2.08397
LeftShoulder1  0.721125 1.39203 -28.0199
LeftArm  12.3574 28.8824 -27.6324
LeftForeArm  -0.0917521 -14.1994 -12.2924
LeftHand  0.446003 -1.26238 -7.69117
RightShoulder  9.52731 23.8668 28.6167
RightArm  -27.556 26.4148 5.82052
RightForeArm  27.6587 -0.551849 9.75112
RightHand  -0.272808 2.20968 -4.35738
LeftUpLeg  -15.1217 6.167 -3.46863
LeftLeg  7.8304 14.2994 -1.58097
LeftFoot  9.19192 -1.46469 7.763
LeftToes  -6.27584e-011 -2.25241e-010 2.80627e-011
